<?xml version="1.0" encoding="UTF-8"?>
<svg xmlns="http://www.w3.org/2000/svg" version="1.1" width="300" height="300" viewBox="0 0 300 300"><rect x="0" y="0" width="300" height="300" fill="#ffffff"/><g transform="scale(14.286)"><g transform="translate(0,0)"><path fill-rule="evenodd" d="M8 0L8 2L9 2L9 4L8 4L8 9L7 9L7 8L5 8L5 9L7 9L7 10L6 10L6 11L7 11L7 12L3 12L3 10L4 10L4 11L5 11L5 10L4 10L4 9L3 9L3 8L0 8L0 10L1 10L1 9L2 9L2 11L1 11L1 13L2 13L2 12L3 12L3 13L7 13L7 12L8 12L8 14L10 14L10 15L8 15L8 16L10 16L10 17L9 17L9 18L8 18L8 21L10 21L10 20L11 20L11 18L10 18L10 17L17 17L17 18L18 18L18 17L19 17L19 16L20 16L20 17L21 17L21 16L20 16L20 14L21 14L21 12L20 12L20 11L21 11L21 10L20 10L20 9L21 9L21 8L19 8L19 9L18 9L18 10L15 10L15 9L17 9L17 8L12 8L12 7L13 7L13 6L12 6L12 7L11 7L11 5L10 5L10 7L9 7L9 4L10 4L10 3L11 3L11 4L12 4L12 5L13 5L13 3L12 3L12 2L13 2L13 0ZM10 1L10 2L11 2L11 1ZM8 9L8 11L9 11L9 13L10 13L10 14L11 14L11 13L12 13L12 14L13 14L13 12L16 12L16 11L13 11L13 10L14 10L14 9ZM9 10L9 11L10 11L10 12L11 12L11 10ZM19 10L19 11L17 11L17 14L18 14L18 15L15 15L15 14L14 14L14 15L15 15L15 16L17 16L17 17L18 17L18 16L19 16L19 14L20 14L20 12L19 12L19 11L20 11L20 10ZM12 11L12 12L13 12L13 11ZM18 12L18 13L19 13L19 12ZM10 15L10 16L11 16L11 15ZM12 15L12 16L13 16L13 15ZM9 18L9 19L10 19L10 18ZM14 18L14 19L16 19L16 18ZM19 18L19 19L20 19L20 20L19 20L19 21L21 21L21 18ZM12 19L12 20L13 20L13 19ZM14 20L14 21L15 21L15 20ZM0 0L0 7L7 7L7 0ZM1 1L1 6L6 6L6 1ZM2 2L2 5L5 5L5 2ZM14 0L14 7L21 7L21 0ZM15 1L15 6L20 6L20 1ZM16 2L16 5L19 5L19 2ZM0 14L0 21L7 21L7 14ZM1 15L1 20L6 20L6 15ZM2 16L2 19L5 19L5 16Z" fill="#000000"/></g></g></svg>
