<?xml version="1.0" encoding="UTF-8"?>
<svg xmlns="http://www.w3.org/2000/svg" version="1.1" width="300" height="300" viewBox="0 0 300 300"><rect x="0" y="0" width="300" height="300" fill="#ffffff"/><g transform="scale(14.286)"><g transform="translate(0,0)"><path fill-rule="evenodd" d="M8 0L8 1L9 1L9 2L8 2L8 5L11 5L11 4L12 4L12 3L13 3L13 0L12 0L12 3L11 3L11 2L10 2L10 0ZM9 2L9 4L11 4L11 3L10 3L10 2ZM8 6L8 7L9 7L9 8L8 8L8 9L7 9L7 8L6 8L6 9L4 9L4 8L0 8L0 13L5 13L5 12L4 12L4 11L3 11L3 12L1 12L1 9L2 9L2 10L6 10L6 11L7 11L7 12L6 12L6 13L8 13L8 14L9 14L9 15L10 15L10 13L11 13L11 14L12 14L12 12L13 12L13 15L12 15L12 16L13 16L13 17L17 17L17 16L18 16L18 15L21 15L21 14L19 14L19 13L18 13L18 12L21 12L21 11L19 11L19 8L16 8L16 9L15 9L15 10L13 10L13 9L14 9L14 8L13 8L13 9L12 9L12 12L10 12L10 11L11 11L11 10L9 10L9 11L7 11L7 10L8 10L8 9L9 9L9 8L10 8L10 9L11 9L11 6L10 6L10 7L9 7L9 6ZM12 6L12 7L13 7L13 6ZM20 8L20 9L21 9L21 8ZM6 9L6 10L7 10L7 9ZM15 10L15 11L16 11L16 10ZM17 10L17 12L14 12L14 11L13 11L13 12L14 12L14 13L16 13L16 14L14 14L14 16L17 16L17 15L16 15L16 14L18 14L18 13L17 13L17 12L18 12L18 10ZM8 12L8 13L9 13L9 12ZM10 16L10 17L8 17L8 21L10 21L10 19L11 19L11 20L12 20L12 19L11 19L11 18L10 18L10 17L11 17L11 16ZM19 17L19 18L20 18L20 17ZM9 18L9 19L10 19L10 18ZM14 19L14 20L13 20L13 21L14 21L14 20L16 20L16 21L18 21L18 20L19 20L19 21L20 21L20 20L19 20L19 19L18 19L18 20L16 20L16 19ZM0 0L0 7L7 7L7 0ZM1 1L1 6L6 6L6 1ZM2 2L2 5L5 5L5 2ZM14 0L14 7L21 7L21 0ZM15 1L15 6L20 6L20 1ZM16 2L16 5L19 5L19 2ZM0 14L0 21L7 21L7 14ZM1 15L1 20L6 20L6 15ZM2 16L2 19L5 19L5 16Z" fill="#000000"/></g></g></svg>
