<?xml version="1.0" encoding="UTF-8"?>
<svg xmlns="http://www.w3.org/2000/svg" version="1.1" width="300" height="300" viewBox="0 0 300 300"><rect x="0" y="0" width="300" height="300" fill="#ffffff"/><g transform="scale(14.286)"><g transform="translate(0,0)"><path fill-rule="evenodd" d="M8 0L8 2L9 2L9 4L8 4L8 10L6 10L6 9L7 9L7 8L5 8L5 10L4 10L4 9L3 9L3 8L0 8L0 11L4 11L4 12L0 12L0 13L4 13L4 12L5 12L5 11L8 11L8 12L6 12L6 13L8 13L8 14L9 14L9 13L8 13L8 12L9 12L9 10L11 10L11 9L15 9L15 10L14 10L14 12L16 12L16 13L17 13L17 14L16 14L16 15L15 15L15 13L13 13L13 14L11 14L11 15L10 15L10 17L9 17L9 18L8 18L8 21L17 21L17 20L18 20L18 19L20 19L20 20L19 20L19 21L21 21L21 18L18 18L18 17L20 17L20 16L19 16L19 14L18 14L18 13L17 13L17 12L16 12L16 11L18 11L18 10L19 10L19 11L20 11L20 12L19 12L19 13L21 13L21 10L20 10L20 9L21 9L21 8L19 8L19 9L18 9L18 10L16 10L16 9L17 9L17 8L12 8L12 7L13 7L13 6L12 6L12 7L11 7L11 5L10 5L10 7L9 7L9 4L10 4L10 3L11 3L11 4L12 4L12 5L13 5L13 3L12 3L12 2L13 2L13 0ZM10 1L10 2L11 2L11 1ZM1 9L1 10L2 10L2 9ZM15 10L15 11L16 11L16 10ZM10 11L10 12L11 12L11 11ZM12 11L12 12L13 12L13 11ZM17 14L17 15L18 15L18 14ZM20 14L20 15L21 15L21 14ZM8 15L8 16L9 16L9 15ZM11 15L11 16L13 16L13 17L11 17L11 18L9 18L9 19L10 19L10 20L11 20L11 18L12 18L12 19L13 19L13 17L14 17L14 18L15 18L15 17L16 17L16 16L15 16L15 17L14 17L14 16L13 16L13 15ZM17 16L17 17L18 17L18 16ZM16 18L16 19L14 19L14 20L17 20L17 18ZM0 0L0 7L7 7L7 0ZM1 1L1 6L6 6L6 1ZM2 2L2 5L5 5L5 2ZM14 0L14 7L21 7L21 0ZM15 1L15 6L20 6L20 1ZM16 2L16 5L19 5L19 2ZM0 14L0 21L7 21L7 14ZM1 15L1 20L6 20L6 15ZM2 16L2 19L5 19L5 16Z" fill="#000000"/></g></g></svg>
