<?xml version="1.0" encoding="UTF-8"?>
<svg xmlns="http://www.w3.org/2000/svg" version="1.1" width="300" height="300" viewBox="0 0 300 300"><rect x="0" y="0" width="300" height="300" fill="#ffffff"/><g transform="scale(14.286)"><g transform="translate(0,0)"><path fill-rule="evenodd" d="M8 0L8 4L9 4L9 5L8 5L8 7L9 7L9 5L10 5L10 7L11 7L11 5L12 5L12 7L13 7L13 2L12 2L12 1L13 1L13 0L12 0L12 1L11 1L11 2L10 2L10 1L9 1L9 0ZM9 3L9 4L10 4L10 3ZM11 3L11 4L12 4L12 3ZM0 8L0 9L2 9L2 10L4 10L4 9L5 9L5 10L6 10L6 11L3 11L3 12L2 12L2 11L0 11L0 12L1 12L1 13L4 13L4 12L5 12L5 13L7 13L7 12L6 12L6 11L8 11L8 12L10 12L10 11L11 11L11 13L10 13L10 14L9 14L9 13L8 13L8 14L9 14L9 15L8 15L8 17L10 17L10 15L11 15L11 16L12 16L12 18L11 18L11 19L10 19L10 18L9 18L9 19L8 19L8 21L10 21L10 20L11 20L11 21L15 21L15 20L17 20L17 21L18 21L18 20L17 20L17 19L18 19L18 18L21 18L21 17L20 17L20 16L19 16L19 15L20 15L20 14L21 14L21 11L20 11L20 12L19 12L19 13L18 13L18 11L19 11L19 10L16 10L16 8L15 8L15 9L13 9L13 8L12 8L12 11L11 11L11 9L10 9L10 11L9 11L9 9L8 9L8 10L6 10L6 9L7 9L7 8L4 8L4 9L2 9L2 8ZM17 8L17 9L20 9L20 10L21 10L21 8ZM14 10L14 11L13 11L13 12L12 12L12 13L11 13L11 14L12 14L12 16L13 16L13 18L12 18L12 20L13 20L13 19L14 19L14 20L15 20L15 18L14 18L14 16L13 16L13 15L15 15L15 16L16 16L16 17L17 17L17 16L18 16L18 15L19 15L19 14L17 14L17 12L16 12L16 10ZM14 11L14 12L15 12L15 13L16 13L16 12L15 12L15 11ZM12 13L12 14L13 14L13 13ZM16 14L16 15L17 15L17 14ZM16 18L16 19L17 19L17 18ZM20 19L20 20L19 20L19 21L21 21L21 19ZM0 0L0 7L7 7L7 0ZM1 1L1 6L6 6L6 1ZM2 2L2 5L5 5L5 2ZM14 0L14 7L21 7L21 0ZM15 1L15 6L20 6L20 1ZM16 2L16 5L19 5L19 2ZM0 14L0 21L7 21L7 14ZM1 15L1 20L6 20L6 15ZM2 16L2 19L5 19L5 16Z" fill="#000000"/></g></g></svg>
