<?xml version="1.0" encoding="UTF-8"?>
<svg xmlns="http://www.w3.org/2000/svg" version="1.1" width="300" height="300" viewBox="0 0 300 300"><rect x="0" y="0" width="300" height="300" fill="#ffffff"/><g transform="scale(14.286)"><g transform="translate(0,0)"><path fill-rule="evenodd" d="M8 0L8 4L9 4L9 5L8 5L8 7L9 7L9 5L10 5L10 7L11 7L11 5L12 5L12 7L13 7L13 2L12 2L12 1L13 1L13 0L12 0L12 1L11 1L11 2L10 2L10 1L9 1L9 0ZM9 3L9 4L10 4L10 3ZM11 3L11 4L12 4L12 3ZM0 8L0 12L1 12L1 13L2 13L2 12L1 12L1 10L2 10L2 11L4 11L4 13L5 13L5 11L7 11L7 12L6 12L6 13L7 13L7 12L8 12L8 14L10 14L10 15L11 15L11 16L10 16L10 17L9 17L9 15L8 15L8 17L9 17L9 19L8 19L8 21L10 21L10 20L9 20L9 19L10 19L10 17L12 17L12 18L11 18L11 20L12 20L12 21L15 21L15 20L12 20L12 19L13 19L13 17L12 17L12 16L14 16L14 18L15 18L15 17L16 17L16 20L17 20L17 21L21 21L21 19L20 19L20 20L19 20L19 18L21 18L21 17L20 17L20 16L19 16L19 14L20 14L20 15L21 15L21 14L20 14L20 13L21 13L21 8L17 8L17 9L16 9L16 8L15 8L15 9L13 9L13 8L12 8L12 11L11 11L11 13L9 13L9 12L8 12L8 11L10 11L10 10L11 10L11 9L8 9L8 10L6 10L6 9L7 9L7 8L4 8L4 9L2 9L2 8ZM15 9L15 10L14 10L14 11L15 11L15 12L16 12L16 14L17 14L17 16L18 16L18 14L19 14L19 12L20 12L20 10L19 10L19 12L18 12L18 14L17 14L17 12L16 12L16 11L18 11L18 10L16 10L16 9ZM4 10L4 11L5 11L5 10ZM15 10L15 11L16 11L16 10ZM12 12L12 13L11 13L11 14L12 14L12 15L14 15L14 16L16 16L16 15L15 15L15 14L14 14L14 12ZM12 13L12 14L13 14L13 13ZM17 17L17 18L18 18L18 17ZM17 19L17 20L18 20L18 19ZM0 0L0 7L7 7L7 0ZM1 1L1 6L6 6L6 1ZM2 2L2 5L5 5L5 2ZM14 0L14 7L21 7L21 0ZM15 1L15 6L20 6L20 1ZM16 2L16 5L19 5L19 2ZM0 14L0 21L7 21L7 14ZM1 15L1 20L6 20L6 15ZM2 16L2 19L5 19L5 16Z" fill="#000000"/></g></g></svg>
