<?xml version="1.0" encoding="UTF-8"?>
<svg xmlns="http://www.w3.org/2000/svg" version="1.1" width="300" height="300" viewBox="0 0 300 300"><rect x="0" y="0" width="300" height="300" fill="#ffffff"/><g transform="scale(14.286)"><g transform="translate(0,0)"><path fill-rule="evenodd" d="M8 0L8 4L12 4L12 5L11 5L11 6L10 6L10 5L8 5L8 7L9 7L9 10L8 10L8 9L7 9L7 8L4 8L4 9L2 9L2 8L0 8L0 9L1 9L1 11L0 11L0 12L2 12L2 11L3 11L3 13L4 13L4 12L5 12L5 13L7 13L7 12L6 12L6 11L7 11L7 10L8 10L8 11L9 11L9 10L10 10L10 8L11 8L11 11L10 11L10 13L11 13L11 11L12 11L12 10L14 10L14 12L12 12L12 15L11 15L11 14L9 14L9 13L8 13L8 14L9 14L9 15L8 15L8 17L9 17L9 19L8 19L8 21L9 21L9 19L10 19L10 17L12 17L12 18L11 18L11 20L12 20L12 21L17 21L17 20L18 20L18 21L21 21L21 19L20 19L20 20L18 20L18 19L16 19L16 18L15 18L15 19L14 19L14 20L12 20L12 18L14 18L14 17L17 17L17 18L18 18L18 17L17 17L17 16L18 16L18 14L20 14L20 15L19 15L19 16L20 16L20 17L19 17L19 18L21 18L21 14L20 14L20 13L21 13L21 12L20 12L20 10L21 10L21 8L17 8L17 9L16 9L16 8L15 8L15 9L12 9L12 8L13 8L13 6L12 6L12 5L13 5L13 4L12 4L12 3L9 3L9 1L10 1L10 2L11 2L11 1L12 1L12 2L13 2L13 0ZM9 6L9 7L10 7L10 6ZM11 6L11 7L12 7L12 6ZM5 9L5 10L4 10L4 11L6 11L6 10L7 10L7 9ZM15 9L15 10L16 10L16 12L17 12L17 13L15 13L15 12L14 12L14 13L15 13L15 14L13 14L13 16L12 16L12 17L14 17L14 16L16 16L16 15L15 15L15 14L18 14L18 10L16 10L16 9ZM19 9L19 10L20 10L20 9ZM19 12L19 13L20 13L20 12ZM9 15L9 17L10 17L10 15ZM0 0L0 7L7 7L7 0ZM1 1L1 6L6 6L6 1ZM2 2L2 5L5 5L5 2ZM14 0L14 7L21 7L21 0ZM15 1L15 6L20 6L20 1ZM16 2L16 5L19 5L19 2ZM0 14L0 21L7 21L7 14ZM1 15L1 20L6 20L6 15ZM2 16L2 19L5 19L5 16Z" fill="#000000"/></g></g></svg>
