<?xml version="1.0" encoding="UTF-8"?>
<svg xmlns="http://www.w3.org/2000/svg" version="1.1" width="300" height="300" viewBox="0 0 300 300"><rect x="0" y="0" width="300" height="300" fill="#ffffff"/><g transform="scale(14.286)"><g transform="translate(0,0)"><path fill-rule="evenodd" d="M10 0L10 3L12 3L12 4L8 4L8 8L6 8L6 9L7 9L7 10L4 10L4 8L3 8L3 9L2 9L2 8L0 8L0 11L1 11L1 13L3 13L3 12L4 12L4 13L5 13L5 11L8 11L8 10L9 10L9 11L10 11L10 12L11 12L11 14L10 14L10 13L9 13L9 12L8 12L8 15L9 15L9 16L12 16L12 17L13 17L13 16L12 16L12 15L13 15L13 14L15 14L15 15L14 15L14 19L15 19L15 20L12 20L12 19L10 19L10 17L8 17L8 18L9 18L9 19L8 19L8 21L10 21L10 20L11 20L11 21L15 21L15 20L16 20L16 21L19 21L19 19L18 19L18 17L19 17L19 18L20 18L20 20L21 20L21 17L20 17L20 15L19 15L19 16L18 16L18 14L19 14L19 12L20 12L20 14L21 14L21 10L20 10L20 11L18 11L18 10L16 10L16 9L17 9L17 8L14 8L14 9L13 9L13 8L10 8L10 9L11 9L11 10L9 10L9 9L8 9L8 8L9 8L9 6L10 6L10 7L11 7L11 5L13 5L13 3L12 3L12 2L13 2L13 0L12 0L12 2L11 2L11 0ZM8 1L8 3L9 3L9 1ZM12 6L12 7L13 7L13 6ZM18 8L18 9L20 9L20 8ZM12 9L12 11L11 11L11 12L12 12L12 14L13 14L13 12L15 12L15 14L16 14L16 12L18 12L18 11L15 11L15 9L14 9L14 11L13 11L13 9ZM1 10L1 11L4 11L4 10ZM12 11L12 12L13 12L13 11ZM6 12L6 13L7 13L7 12ZM9 14L9 15L10 15L10 14ZM15 15L15 16L16 16L16 18L17 18L17 16L16 16L16 15ZM0 0L0 7L7 7L7 0ZM1 1L1 6L6 6L6 1ZM2 2L2 5L5 5L5 2ZM14 0L14 7L21 7L21 0ZM15 1L15 6L20 6L20 1ZM16 2L16 5L19 5L19 2ZM0 14L0 21L7 21L7 14ZM1 15L1 20L6 20L6 15ZM2 16L2 19L5 19L5 16Z" fill="#000000"/></g></g></svg>
