<?xml version="1.0" encoding="UTF-8"?>
<svg xmlns="http://www.w3.org/2000/svg" version="1.1" width="300" height="300" viewBox="0 0 300 300"><rect x="0" y="0" width="300" height="300" fill="#ffffff"/><g transform="scale(14.286)"><g transform="translate(0,0)"><path fill-rule="evenodd" d="M8 0L8 1L9 1L9 0ZM10 0L10 2L8 2L8 5L9 5L9 6L8 6L8 7L9 7L9 6L10 6L10 7L11 7L11 8L8 8L8 9L7 9L7 8L6 8L6 9L5 9L5 10L4 10L4 8L0 8L0 10L1 10L1 11L2 11L2 13L3 13L3 12L4 12L4 13L8 13L8 14L10 14L10 13L8 13L8 12L10 12L10 10L9 10L9 11L8 11L8 9L11 9L11 12L12 12L12 13L11 13L11 15L14 15L14 14L15 14L15 16L14 16L14 17L13 17L13 16L12 16L12 17L13 17L13 18L12 18L12 19L11 19L11 20L12 20L12 19L13 19L13 18L14 18L14 17L18 17L18 16L19 16L19 18L20 18L20 17L21 17L21 13L20 13L20 15L18 15L18 14L17 14L17 16L16 16L16 14L15 14L15 12L16 12L16 13L17 13L17 11L18 11L18 13L19 13L19 12L21 12L21 10L20 10L20 9L21 9L21 8L20 8L20 9L19 9L19 8L16 8L16 9L19 9L19 10L17 10L17 11L16 11L16 10L15 10L15 9L14 9L14 8L13 8L13 5L12 5L12 4L13 4L13 3L12 3L12 1L13 1L13 0ZM10 2L10 4L9 4L9 5L11 5L11 4L12 4L12 3L11 3L11 2ZM11 6L11 7L12 7L12 6ZM1 9L1 10L2 10L2 11L4 11L4 10L2 10L2 9ZM6 9L6 10L5 10L5 12L7 12L7 11L6 11L6 10L7 10L7 9ZM12 10L12 12L13 12L13 13L12 13L12 14L14 14L14 12L15 12L15 10L14 10L14 12L13 12L13 10ZM19 10L19 11L20 11L20 10ZM9 15L9 17L8 17L8 21L9 21L9 17L10 17L10 18L11 18L11 16L10 16L10 15ZM15 18L15 19L17 19L17 20L18 20L18 21L20 21L20 20L19 20L19 19L18 19L18 18ZM0 0L0 7L7 7L7 0ZM1 1L1 6L6 6L6 1ZM2 2L2 5L5 5L5 2ZM14 0L14 7L21 7L21 0ZM15 1L15 6L20 6L20 1ZM16 2L16 5L19 5L19 2ZM0 14L0 21L7 21L7 14ZM1 15L1 20L6 20L6 15ZM2 16L2 19L5 19L5 16Z" fill="#000000"/></g></g></svg>
