<?xml version="1.0" encoding="UTF-8"?>
<svg xmlns="http://www.w3.org/2000/svg" version="1.1" width="300" height="300" viewBox="0 0 300 300"><rect x="0" y="0" width="300" height="300" fill="#ffffff"/><g transform="scale(14.286)"><g transform="translate(0,0)"><path fill-rule="evenodd" d="M10 0L10 1L11 1L11 0ZM12 0L12 2L13 2L13 0ZM8 2L8 3L9 3L9 2ZM10 2L10 3L11 3L11 2ZM12 3L12 4L11 4L11 5L10 5L10 4L9 4L9 6L8 6L8 8L4 8L4 9L3 9L3 8L0 8L0 10L3 10L3 11L2 11L2 12L3 12L3 11L4 11L4 13L5 13L5 11L8 11L8 17L9 17L9 18L8 18L8 21L10 21L10 20L12 20L12 21L13 21L13 20L14 20L14 21L15 21L15 20L14 20L14 19L17 19L17 18L18 18L18 17L19 17L19 18L20 18L20 19L18 19L18 20L16 20L16 21L19 21L19 20L20 20L20 21L21 21L21 18L20 18L20 17L19 17L19 16L20 16L20 15L18 15L18 14L21 14L21 12L20 12L20 11L21 11L21 10L19 10L19 11L18 11L18 10L17 10L17 9L15 9L15 8L12 8L12 9L11 9L11 6L12 6L12 7L13 7L13 6L12 6L12 5L13 5L13 3ZM9 6L9 9L10 9L10 6ZM18 8L18 9L19 9L19 8ZM6 9L6 10L8 10L8 9ZM12 9L12 11L13 11L13 12L12 12L12 14L11 14L11 12L10 12L10 11L11 11L11 10L9 10L9 14L10 14L10 16L9 16L9 17L10 17L10 16L11 16L11 17L12 17L12 18L10 18L10 19L9 19L9 20L10 20L10 19L12 19L12 20L13 20L13 19L14 19L14 18L15 18L15 17L12 17L12 16L11 16L11 15L12 15L12 14L13 14L13 16L16 16L16 17L17 17L17 16L18 16L18 15L16 15L16 14L17 14L17 13L13 13L13 12L14 12L14 11L13 11L13 9ZM14 9L14 10L15 10L15 12L17 12L17 10L15 10L15 9ZM4 10L4 11L5 11L5 10ZM0 12L0 13L1 13L1 12ZM6 12L6 13L7 13L7 12ZM19 12L19 13L20 13L20 12ZM14 14L14 15L15 15L15 14ZM12 18L12 19L13 19L13 18ZM0 0L0 7L7 7L7 0ZM1 1L1 6L6 6L6 1ZM2 2L2 5L5 5L5 2ZM14 0L14 7L21 7L21 0ZM15 1L15 6L20 6L20 1ZM16 2L16 5L19 5L19 2ZM0 14L0 21L7 21L7 14ZM1 15L1 20L6 20L6 15ZM2 16L2 19L5 19L5 16Z" fill="#000000"/></g></g></svg>
