<?xml version="1.0" encoding="UTF-8"?>
<svg xmlns="http://www.w3.org/2000/svg" version="1.1" width="300" height="300" viewBox="0 0 300 300"><rect x="0" y="0" width="300" height="300" fill="#ffffff"/><g transform="scale(14.286)"><g transform="translate(0,0)"><path fill-rule="evenodd" d="M8 0L8 4L9 4L9 5L8 5L8 7L9 7L9 5L10 5L10 7L11 7L11 5L12 5L12 7L13 7L13 2L12 2L12 1L13 1L13 0L12 0L12 1L11 1L11 2L10 2L10 1L9 1L9 0ZM9 3L9 4L10 4L10 3ZM11 3L11 4L12 4L12 3ZM0 8L0 9L1 9L1 10L2 10L2 12L3 12L3 11L4 11L4 13L5 13L5 11L8 11L8 12L9 12L9 13L8 13L8 14L9 14L9 15L8 15L8 17L9 17L9 19L8 19L8 21L9 21L9 20L10 20L10 21L12 21L12 20L13 20L13 19L14 19L14 18L15 18L15 20L14 20L14 21L18 21L18 19L19 19L19 18L21 18L21 16L20 16L20 15L21 15L21 14L20 14L20 13L21 13L21 12L20 12L20 10L21 10L21 8L17 8L17 9L20 9L20 10L19 10L19 12L18 12L18 10L15 10L15 9L16 9L16 8L15 8L15 9L14 9L14 10L15 10L15 11L17 11L17 13L15 13L15 12L13 12L13 8L12 8L12 11L11 11L11 15L10 15L10 12L9 12L9 11L10 11L10 10L11 10L11 9L9 9L9 10L8 10L8 9L7 9L7 8L4 8L4 9L2 9L2 8ZM4 9L4 11L5 11L5 10L7 10L7 9ZM6 12L6 13L7 13L7 12ZM12 12L12 13L13 13L13 14L12 14L12 15L11 15L11 18L10 18L10 19L12 19L12 16L13 16L13 15L14 15L14 14L15 14L15 13L13 13L13 12ZM19 12L19 13L20 13L20 12ZM17 13L17 14L18 14L18 13ZM19 14L19 15L18 15L18 16L19 16L19 17L20 17L20 16L19 16L19 15L20 15L20 14ZM9 15L9 17L10 17L10 15ZM15 16L15 18L16 18L16 19L18 19L18 18L17 18L17 16ZM20 19L20 20L19 20L19 21L21 21L21 19ZM0 0L0 7L7 7L7 0ZM1 1L1 6L6 6L6 1ZM2 2L2 5L5 5L5 2ZM14 0L14 7L21 7L21 0ZM15 1L15 6L20 6L20 1ZM16 2L16 5L19 5L19 2ZM0 14L0 21L7 21L7 14ZM1 15L1 20L6 20L6 15ZM2 16L2 19L5 19L5 16Z" fill="#000000"/></g></g></svg>
