<?xml version="1.0" encoding="UTF-8"?>
<svg xmlns="http://www.w3.org/2000/svg" version="1.1" width="300" height="300" viewBox="0 0 300 300"><rect x="0" y="0" width="300" height="300" fill="#ffffff"/><g transform="scale(14.286)"><g transform="translate(0,0)"><path fill-rule="evenodd" d="M12 0L12 2L11 2L11 1L10 1L10 4L9 4L9 3L8 3L8 5L9 5L9 6L8 6L8 7L9 7L9 6L10 6L10 7L11 7L11 6L12 6L12 7L13 7L13 6L12 6L12 5L13 5L13 0ZM11 3L11 4L10 4L10 6L11 6L11 5L12 5L12 3ZM0 8L0 9L2 9L2 11L1 11L1 10L0 10L0 12L1 12L1 13L8 13L8 16L9 16L9 19L8 19L8 21L9 21L9 19L10 19L10 21L11 21L11 19L12 19L12 21L13 21L13 20L14 20L14 21L15 21L15 20L14 20L14 19L16 19L16 18L13 18L13 17L12 17L12 16L11 16L11 17L12 17L12 18L10 18L10 14L11 14L11 15L12 15L12 14L13 14L13 13L14 13L14 12L15 12L15 11L16 11L16 12L17 12L17 13L18 13L18 16L19 16L19 17L20 17L20 15L21 15L21 9L20 9L20 12L18 12L18 10L19 10L19 9L18 9L18 8L16 8L16 9L17 9L17 10L15 10L15 9L14 9L14 12L13 12L13 9L12 9L12 8L11 8L11 9L8 9L8 8L5 8L5 9L2 9L2 8ZM6 9L6 10L5 10L5 11L6 11L6 12L8 12L8 13L9 13L9 14L10 14L10 13L11 13L11 14L12 14L12 13L11 13L11 11L12 11L12 10L9 10L9 11L8 11L8 10L7 10L7 9ZM6 10L6 11L7 11L7 10ZM9 12L9 13L10 13L10 12ZM19 13L19 15L20 15L20 13ZM15 14L15 15L14 15L14 16L16 16L16 17L17 17L17 18L18 18L18 21L19 21L19 19L20 19L20 20L21 20L21 18L18 18L18 17L17 17L17 15L16 15L16 14ZM16 20L16 21L17 21L17 20ZM0 0L0 7L7 7L7 0ZM1 1L1 6L6 6L6 1ZM2 2L2 5L5 5L5 2ZM14 0L14 7L21 7L21 0ZM15 1L15 6L20 6L20 1ZM16 2L16 5L19 5L19 2ZM0 14L0 21L7 21L7 14ZM1 15L1 20L6 20L6 15ZM2 16L2 19L5 19L5 16Z" fill="#000000"/></g></g></svg>
