<?xml version="1.0" encoding="UTF-8"?>
<svg xmlns="http://www.w3.org/2000/svg" version="1.1" width="300" height="300" viewBox="0 0 300 300"><rect x="0" y="0" width="300" height="300" fill="#ffffff"/><g transform="scale(14.286)"><g transform="translate(0,0)"><path fill-rule="evenodd" d="M8 0L8 4L9 4L9 5L8 5L8 7L9 7L9 5L10 5L10 7L11 7L11 5L12 5L12 7L13 7L13 2L12 2L12 1L13 1L13 0L12 0L12 1L11 1L11 2L10 2L10 1L9 1L9 0ZM9 3L9 4L10 4L10 3ZM11 3L11 4L12 4L12 3ZM0 8L0 12L3 12L3 13L7 13L7 12L8 12L8 14L9 14L9 15L8 15L8 17L9 17L9 15L10 15L10 14L11 14L11 16L10 16L10 18L9 18L9 19L8 19L8 21L9 21L9 20L10 20L10 21L11 21L11 20L12 20L12 21L15 21L15 20L18 20L18 21L21 21L21 19L20 19L20 20L19 20L19 18L21 18L21 17L20 17L20 16L18 16L18 15L19 15L19 14L20 14L20 13L21 13L21 12L19 12L19 11L20 11L20 10L21 10L21 8L17 8L17 10L18 10L18 11L16 11L16 12L17 12L17 13L19 13L19 14L16 14L16 13L15 13L15 9L16 9L16 8L15 8L15 9L13 9L13 8L12 8L12 11L10 11L10 10L11 10L11 9L10 9L10 10L9 10L9 11L7 11L7 10L8 10L8 9L7 9L7 8L4 8L4 10L3 10L3 9L2 9L2 8ZM5 9L5 10L4 10L4 12L5 12L5 11L6 11L6 12L7 12L7 11L6 11L6 10L7 10L7 9ZM19 9L19 10L20 10L20 9ZM13 10L13 11L14 11L14 10ZM9 11L9 13L11 13L11 14L12 14L12 16L11 16L11 18L12 18L12 16L13 16L13 19L12 19L12 20L15 20L15 19L16 19L16 18L17 18L17 19L18 19L18 18L17 18L17 15L16 15L16 14L15 14L15 13L14 13L14 12L12 12L12 13L11 13L11 12L10 12L10 11ZM12 13L12 14L13 14L13 13ZM13 15L13 16L14 16L14 18L15 18L15 17L16 17L16 16L15 16L15 15ZM10 19L10 20L11 20L11 19ZM0 0L0 7L7 7L7 0ZM1 1L1 6L6 6L6 1ZM2 2L2 5L5 5L5 2ZM14 0L14 7L21 7L21 0ZM15 1L15 6L20 6L20 1ZM16 2L16 5L19 5L19 2ZM0 14L0 21L7 21L7 14ZM1 15L1 20L6 20L6 15ZM2 16L2 19L5 19L5 16Z" fill="#000000"/></g></g></svg>
