<?xml version="1.0" encoding="UTF-8"?>
<svg xmlns="http://www.w3.org/2000/svg" version="1.1" width="300" height="300" viewBox="0 0 300 300"><rect x="0" y="0" width="300" height="300" fill="#ffffff"/><g transform="scale(14.286)"><g transform="translate(0,0)"><path fill-rule="evenodd" d="M9 0L9 3L8 3L8 5L9 5L9 4L10 4L10 7L9 7L9 6L8 6L8 7L9 7L9 10L10 10L10 13L9 13L9 11L8 11L8 16L9 16L9 17L10 17L10 19L8 19L8 21L9 21L9 20L10 20L10 21L12 21L12 20L10 20L10 19L11 19L11 17L10 17L10 16L12 16L12 18L13 18L13 16L14 16L14 15L16 15L16 16L15 16L15 18L14 18L14 19L15 19L15 21L16 21L16 17L17 17L17 18L18 18L18 19L17 19L17 20L18 20L18 21L19 21L19 20L18 20L18 19L20 19L20 20L21 20L21 18L18 18L18 17L17 17L17 15L16 15L16 14L15 14L15 12L14 12L14 13L11 13L11 11L12 11L12 10L13 10L13 11L14 11L14 10L15 10L15 9L14 9L14 10L13 10L13 4L12 4L12 3L10 3L10 1L11 1L11 2L12 2L12 1L13 1L13 0ZM11 5L11 7L12 7L12 5ZM0 8L0 10L1 10L1 9L2 9L2 8ZM5 8L5 9L3 9L3 10L2 10L2 11L1 11L1 12L0 12L0 13L1 13L1 12L2 12L2 11L3 11L3 13L5 13L5 11L7 11L7 10L5 10L5 9L8 9L8 8ZM10 8L10 10L12 10L12 8ZM16 8L16 12L18 12L18 11L19 11L19 9L18 9L18 8ZM20 9L20 11L21 11L21 9ZM6 12L6 13L7 13L7 12ZM19 12L19 13L20 13L20 14L21 14L21 12ZM17 13L17 14L18 14L18 13ZM10 14L10 15L9 15L9 16L10 16L10 15L12 15L12 14ZM13 14L13 15L14 15L14 14ZM18 15L18 16L19 16L19 17L20 17L20 16L21 16L21 15L20 15L20 16L19 16L19 15ZM13 20L13 21L14 21L14 20ZM0 0L0 7L7 7L7 0ZM1 1L1 6L6 6L6 1ZM2 2L2 5L5 5L5 2ZM14 0L14 7L21 7L21 0ZM15 1L15 6L20 6L20 1ZM16 2L16 5L19 5L19 2ZM0 14L0 21L7 21L7 14ZM1 15L1 20L6 20L6 15ZM2 16L2 19L5 19L5 16Z" fill="#000000"/></g></g></svg>
